<svg width="294" height="48" viewBox="0 0 294 48" fill="none" xmlns="http://www.w3.org/2000/svg">
<g clip-path="url(#clip0_247_41)">
<path d="M0 8.84736C7.5744 9.3504 13.6435 15.4349 14.1197 23.017H22.9651C22.4736 10.5446 12.4666 0.5184 0 0V8.84736Z" fill="#0DC09D"/>
<path d="M14.1696 25.0349C13.6666 32.6093 7.58208 38.6784 0 39.1546V48C12.4723 47.5085 22.4986 37.5014 23.017 25.0349H14.1696Z" fill="#0DC09D"/>
<path d="M33.8305 22.9651C34.3336 15.3907 40.418 9.3216 48.0001 8.84544V0C35.5278 0.49152 25.5016 10.4986 24.9832 22.9651H33.8305Z" fill="#0DC09D"/>
<path d="M48 39.1526C40.4256 38.6496 34.3565 32.5651 33.8804 24.983H25.0349C25.5264 37.4554 35.5335 47.4816 48 48V39.1526Z" fill="#0DC09D"/>
<path d="M63 39.2678V8.85696H68.8944V13.6435H69.8275C70.3728 12.4762 71.3443 11.3875 72.7459 10.3757C74.1475 9.36384 76.2288 8.85888 78.9917 8.85888C81.1709 8.85888 83.1062 9.34656 84.7997 10.3181C86.4931 11.2915 87.8256 12.6624 88.7971 14.4326C89.7686 16.2029 90.2563 18.3341 90.2563 20.8243V39.2678H84.2448V21.2909C84.2448 18.8006 83.6227 16.9632 82.3766 15.7747C81.1306 14.5882 79.4198 13.9949 77.2406 13.9949C74.7504 13.9949 72.7555 14.8128 71.2579 16.4467C69.7603 18.0806 69.0115 20.4557 69.0115 23.568V39.2698H63V39.2678Z" fill="#160F26"/>
<path d="M206.695 39.2813V0.0556946H212.706V39.2813H206.695Z" fill="#160F26"/>
<path d="M233.35 39.2813C230.47 39.2813 227.913 38.688 225.674 37.5014C223.435 36.3149 221.677 34.6118 220.392 32.3942C219.108 30.1766 218.466 27.5501 218.466 24.5146V23.639C218.466 20.6035 219.108 17.9866 220.392 15.7882C221.677 13.5898 223.437 11.8867 225.674 10.681C227.911 9.47519 230.47 8.87231 233.35 8.87231C236.23 8.87231 238.797 9.47519 241.055 10.681C243.311 11.8867 245.083 13.5898 246.366 15.7882C247.65 17.9866 248.292 20.6035 248.292 23.639V24.5146C248.292 27.5501 247.65 30.1766 246.366 32.3942C245.081 34.6118 243.311 36.3149 241.055 37.5014C238.797 38.688 236.23 39.2813 233.35 39.2813ZM233.35 33.911C235.996 33.911 238.146 33.0643 239.799 31.3728C241.453 29.6794 242.28 27.337 242.28 24.3398V23.8138C242.28 20.8186 241.462 18.4723 239.828 16.7808C238.194 15.0874 236.034 14.2426 233.35 14.2426C230.666 14.2426 228.612 15.0893 226.958 16.7808C225.303 18.4742 224.478 20.8186 224.478 23.8138V24.3398C224.478 27.337 225.303 29.6813 226.958 31.3728C228.612 33.0662 230.743 33.911 233.35 33.911Z" fill="#160F26"/>
<path d="M256.413 34.2298L252.325 8.87231H258.337L261.956 35.255H262.889L267 13.655C267.528 10.8806 269.953 8.87231 272.779 8.87231C275.609 8.87231 278.036 10.8864 278.56 13.6666L282.619 35.2531H283.552L287.172 8.87039H293.183L289.095 34.2278C288.627 37.1386 286.114 39.2794 283.164 39.2794C280.275 39.2794 277.796 37.223 277.26 34.3853L273.223 12.9562H272.29L268.252 34.3853C267.716 37.225 265.237 39.2794 262.348 39.2794C259.399 39.2794 256.885 37.1386 256.417 34.2278L256.413 34.2298Z" fill="#160F26"/>
<path d="M187.835 1.68383C186.798 2.73791 186.281 4.14527 186.281 5.90207V39.2813H192.316V13.9833H200.935V8.88575H196.768L193.37 12.2841H192.316V6.89855C192.316 5.72735 192.88 5.14175 194.015 5.14175H200.912V0.101746H192.082C190.283 0.101746 188.867 0.629746 187.835 1.68383Z" fill="#160F26"/>
<path d="M172.167 32.3578V16.3757H166.131V33.4118C166.131 35.1706 166.647 36.576 167.684 37.632C168.719 38.6861 170.117 39.2141 171.875 39.2141H179.845V34.1146H173.809C172.713 34.1146 172.167 33.529 172.167 32.3558V32.3578Z" fill="#160F26"/>
<path d="M135.96 31.0272C134.289 33.0202 131.824 33.9936 129.226 33.9936H110.917C108.494 33.9936 106.473 33.241 104.852 31.7376C104.752 31.6435 104.652 31.5494 104.558 31.4496C104.462 31.3498 104.37 31.2499 104.28 31.1501C104.063 30.9005 103.863 30.6394 103.679 30.3667C102.89 29.1821 102.439 27.7728 102.325 26.1408C102.314 25.9853 102.308 25.8278 102.302 25.6685H124.515V23.3837C124.515 20.4538 123.929 17.8944 122.756 15.7056C121.583 13.5168 119.951 11.808 117.862 10.5773C115.769 9.34656 113.337 8.73024 110.566 8.73024C107.795 8.73024 105.213 9.35424 103.065 10.6061C101.989 11.2301 101.031 11.977 100.186 12.8486C100.081 12.9562 99.9752 13.0675 99.8735 13.1808C99.5663 13.5206 99.2783 13.8758 99.0037 14.2445C98.6408 14.7398 98.3029 15.2678 97.9957 15.8246C96.765 18.0518 96.1487 20.6688 96.1487 23.6774V24.3802C96.1487 27.3888 96.765 30.0058 97.9957 32.233C99.2264 34.4602 100.935 36.1882 103.124 37.4189C105.311 38.6496 107.872 39.2659 110.802 39.2659H128.731C130.369 39.2659 133.794 38.9702 135.825 37.8336C138.08 36.5702 139.473 35.04 141.762 32.3117L142.632 31.0675L139.331 26.3846L135.962 31.0272H135.96ZM102.36 21.0413C102.419 20.64 102.494 20.2522 102.594 19.8816C102.69 19.5091 102.807 19.1539 102.945 18.8141C103.401 17.6832 104.076 16.7251 104.967 15.9418C106.392 14.6899 108.237 14.0659 110.506 14.0659C112.776 14.0659 114.609 14.6899 116.015 15.9418C117.422 17.1936 118.221 18.8928 118.419 21.0413H106.346L103.26 24.1267H102.243C102.227 23.2397 102.243 22.0954 102.36 21.0413Z" fill="#160F26"/>
<path d="M172.167 8.78592V0H166.131V8.78592H160.453C158.816 8.78592 155.39 9.0816 153.359 10.2182C151.105 11.4816 149.275 13.1078 146.987 15.8362L144.46 19.3171C143.4 17.7888 142.546 16.5581 142.144 15.9917C140.084 13.0867 138.08 11.5795 135.824 10.3162C133.792 9.1776 130.559 8.88384 128.921 8.88384H127.796V14.1581H129.419C132.018 14.1581 134.29 15.1315 135.96 17.1245L140.896 24.2246L140.875 24.2534L143.893 28.537L146.451 32.2157C148.74 34.944 150.569 36.5702 152.823 37.8336C154.855 38.9722 158.28 39.2659 159.918 39.2659H161.043V33.9917H159.42C156.821 33.9917 154.3 33.0643 152.687 31.0253C152.067 30.2419 149.884 27.1258 147.641 23.9021L152.453 17.0246C154.123 15.0317 157.356 13.8835 159.954 13.8835H180.521V8.784H172.167V8.78592Z" fill="#160F26"/>
</g>
<defs>
<clipPath id="clip0_247_41">
<rect width="294" height="48" fill="white"/>
</clipPath>
</defs>
</svg>
